<svg width="512" height="512" viewBox="0 0 512 512" fill="none" xmlns="http://www.w3.org/2000/svg" xmlns:xlink="http://www.w3.org/1999/xlink" class=""><rect id="«r9»" width="512" height="512" x="0" y="0" rx="64" fill="url(#«ra»)" stroke="#FFFFFF" stroke-width="0" stroke-opacity="100%" paint-order="stroke"></rect><clipPath id="clip"><use xlink:href="#«r9»"></use></clipPath><defs><linearGradient id="«ra»" gradientUnits="userSpaceOnUse" gradientTransform="rotate(45)" style="transform-origin: center center;"><stop stop-color="#91EAE4"></stop><stop offset="1" stop-color="#7F7FD5"></stop></linearGradient><radialGradient id="«rb»" cx="0" cy="0" r="1" gradientUnits="userSpaceOnUse" gradientTransform="translate(256) rotate(90) scale(512)"><stop stop-color="white"></stop><stop offset="1" stop-color="white" stop-opacity="0"></stop></radialGradient></defs><svg xmlns="http://www.w3.org/2000/svg" width="480" height="480" viewBox="0 0 48 48" x="16" y="16" alignment-baseline="middle" style="color: rgb(255, 255, 255);"><path fill="none" stroke="currentColor" stroke-linecap="round" stroke-linejoin="round" d="M35.71 32.744v-1.64a.383.383 0 0 0-.382-.382h-4.767a.383.383 0 0 0-.383.383v1.64" stroke-width="1"></path><path fill="none" stroke="currentColor" stroke-linecap="round" stroke-linejoin="round" d="M28.472 32.744H10.583V43.5h26.834V32.744zm-10.65-10.756V20.35a.383.383 0 0 0-.383-.383h-4.767a.383.383 0 0 0-.383.383v1.64" stroke-width="1"></path><path fill="none" stroke="currentColor" stroke-linecap="round" stroke-linejoin="round" d="M19.528 21.988h-8.945v10.756h17.889V21.988z" stroke-width="1"></path><path fill="none" stroke="currentColor" stroke-linecap="round" stroke-linejoin="round" d="M26.766 21.988V20.35a.383.383 0 0 0-.382-.383h-4.767a.383.383 0 0 0-.383.383v1.64m-10.107-4.943L12.502 6.38l8.87 1.143l-1.374 10.667zm8.524-9.862l.211-1.637a.385.385 0 0 0-.333-.431l-4.76-.614a.385.385 0 0 0-.431.333l-.211 1.637" stroke-width="1"></path></svg></svg>