<?xml version="1.0" encoding="utf-8" ?>
<svg xmlns="http://www.w3.org/2000/svg" xmlns:xlink="http://www.w3.org/1999/xlink" width="1024" height="1024">
	<path d="M329.323 286.604C331.519 286.396 333.793 286.383 335.995 286.532C347.899 287.336 358.674 294.834 366.178 303.689C379.949 319.941 381.002 332.855 379.345 353.16C384.89 352.338 389.866 352.634 395.173 354.457Q396.183 354.802 397.174 355.198Q398.166 355.593 399.136 356.037Q400.107 356.48 401.054 356.972Q402.001 357.463 402.923 358.001Q403.845 358.539 404.739 359.122Q405.633 359.705 406.497 360.332Q407.361 360.959 408.193 361.627Q409.024 362.296 409.822 363.005Q410.619 363.715 411.381 364.463Q412.142 365.211 412.865 365.995Q413.588 366.78 414.272 367.6Q414.955 368.42 415.597 369.272Q416.239 370.125 416.838 371.009Q417.436 371.892 417.99 372.804Q418.545 373.716 419.053 374.655Q419.561 375.593 420.022 376.556C423.6 383.977 424.54 392.407 421.712 400.249C418.348 409.575 411.561 414.754 402.876 418.873C426.728 436.06 443.148 465.31 448.669 493.929C452.331 512.907 453.538 535.824 442.219 552.563L508.77 534.595C518.683 531.848 530.49 527.175 540.346 525.611C545.769 524.751 551.517 524.917 557.007 524.763Q574.19 524.347 591.378 524.218Q641.683 523.398 691.996 523.395C694.182 511.384 694.624 498.555 695.773 486.387L702.415 418.52C703.348 409.266 703.366 399.567 705.198 390.463C708.811 386.785 713.336 383.745 717.321 380.462C722.443 376.242 727.43 371.488 732.905 367.764C734.699 366.543 736.622 365.501 738.697 364.844C741.655 363.908 744.255 363.705 747.062 365.1C747.857 366.332 747.979 367.04 747.932 368.512C747.533 380.987 745.842 393.832 744.778 406.294L736.41 497.596C735.623 506.53 734.521 515.432 733.897 524.381C742.806 526.561 751.629 529.22 760.506 531.546L810.135 544.331Q824.71 548.128 839.227 552.144C844.172 553.539 849.47 554.753 854.188 556.787C855.72 557.448 856.82 557.887 857.334 559.57C858.343 562.875 858.311 577.326 856.634 580.206C852.504 582.148 821.48 580.969 814.109 581.066C813.465 591.222 813.442 601.409 813.086 611.578Q811.777 641.493 811.002 671.428L804.977 834.195C804.712 841.109 804.752 874.924 803.096 878.321C802.747 878.561 802.457 878.922 802.05 879.041C799.038 879.92 787.409 879.385 783.602 879.446L735.589 880.409L541.501 884.934C541.455 887.616 541.99 892.028 540.095 894.06C535.865 894.861 521.269 895.381 517.998 893.267C517.194 888.67 517.877 883.48 517.942 878.806C518.031 872.349 517.946 865.879 517.943 859.421L517.912 772.809C517.334 760.129 517.897 747.174 517.873 734.462C510.492 734.515 502.979 735.376 495.594 735.808L463.343 737.407C459.662 740.907 456.49 744.4 452.14 747.136C430.61 760.678 394.886 763.108 369.836 766.105C371.667 790.762 375.635 815.127 376.555 839.896C387.988 841.446 399.405 842.496 410.794 844.522C428.809 847.725 446.174 852.844 463.483 858.694C468.793 857.433 473.623 856.977 478.738 859.42C483.458 861.674 487.304 866.088 489.039 871.005C490.517 875.193 490.205 879.603 488.112 883.524C485.847 887.767 481.846 890.753 477.22 891.967C471.908 893.361 465.339 892.647 460.641 889.713C455.808 886.696 453.954 882.48 452.842 877.16C427.545 872.259 401.601 866.236 375.701 866.098C375.447 872.116 374.13 877.319 371.705 882.82C374.958 886.902 377.75 891.014 378.536 896.305C379.27 901.244 378.136 906.131 375.131 910.14C371.731 914.675 366.455 917.612 360.865 918.388C355.202 919.174 348.686 917.98 344.121 914.391C340.646 911.658 338.764 907.857 338.396 903.479C337.849 896.987 339.861 892.121 344.049 887.268C338.1 881.94 336.148 875.574 334.774 867.914C318.323 871.92 294.816 880.094 279.946 888.107C279.129 892.82 278.075 897.06 274.999 900.895C271.606 905.127 266.652 907.295 261.312 907.755C257.014 908.125 252.694 907.108 249.44 904.168C246.504 901.516 245.05 897.753 244.952 893.843Q244.94 893.345 244.953 892.848Q244.966 892.35 245.004 891.854Q245.041 891.358 245.104 890.864Q245.166 890.37 245.253 889.88Q245.34 889.39 245.451 888.905Q245.563 888.42 245.698 887.941Q245.833 887.462 245.992 886.99Q246.151 886.518 246.334 886.055Q246.516 885.592 246.721 885.139Q246.926 884.685 247.154 884.242Q247.381 883.8 247.631 883.369Q247.88 882.938 248.151 882.521Q248.421 882.103 248.712 881.699Q249.003 881.295 249.314 880.906Q249.625 880.518 249.954 880.145Q250.284 879.772 250.632 879.416C255.358 874.674 260.616 873.872 266.982 873.953C286.101 860.379 308.906 850.561 331.207 843.593C328.333 818.409 325.98 793.14 322.047 768.087C298.757 768.404 253.902 770.07 233.659 758.795C227.828 755.547 222.286 750.802 220.576 744.087C218.901 737.508 220.701 730.643 223.993 724.888C220.881 713.508 216.834 702.334 213.522 690.999L186.524 598.07L177.456 566.898C173.436 553.177 169.167 539.286 167.541 525.032C166.257 513.783 165.824 496.643 173.595 487.345C181.67 477.682 194.44 475.253 206.298 474.368Q205.624 470.854 205.376 467.284C204.924 459.838 207.866 454.086 212.625 448.67C201.319 446.368 191.914 443.081 184.192 433.94C177.665 426.214 175.271 415.946 176.216 406.021C177.282 394.823 181.663 384.799 190.506 377.666C200.875 369.301 211.665 367.62 224.612 369.075C220.569 359.665 217.508 351.339 218.747 340.894C220.251 328.22 226.523 316.47 236.637 308.618C246.167 301.218 258.374 297.16 270.452 298.693C281.305 300.07 292.246 306.024 298.908 314.748Q300.001 311.941 301.394 309.271Q302.787 306.6 304.464 304.098C310.724 294.682 318.147 288.843 329.323 286.604ZM187.516 482.236C200.294 488.834 205.452 502.106 209.614 515.119C214.786 531.293 218.371 547.969 222.131 564.513C228.866 594.153 234.806 623.807 240.579 653.647Q244.548 673.588 248.175 693.595C249.398 700.224 251.193 707.236 251.69 713.931C255.996 713.341 260.284 712.751 264.62 712.413Q272.676 711.473 280.759 710.797C273.238 702.139 268.945 691.278 266.786 680.117C264.969 679.77 263.661 679.554 262.185 678.398C259.897 674.995 256.026 636.941 254.819 629.319C250.243 600.434 241.663 571.701 239.442 542.5Q239.029 537.303 238.979 532.089Q238.929 526.876 239.242 521.672Q239.555 516.468 240.229 511.298Q240.903 506.128 241.935 501.018Q242.134 500.005 242.355 498.997C231.416 498.564 221.659 496.098 213.948 487.841C212.083 485.844 208.265 478.58 206.89 478.044L206.188 478.18C199.701 478.998 193.699 479.98 187.516 482.236ZM709.142 392.828C706.156 409.78 705.705 427.652 703.913 444.802Q701.393 468.971 699.153 493.167C698.193 503.283 696.758 513.663 696.827 523.829C699.336 525.394 701.842 526.938 704.229 528.687C708.407 531.399 712.781 533.81 717.105 536.281C718.513 527.196 718.931 517.873 719.757 508.715L724.532 456.405C726.74 433.462 729.55 410.592 731.712 387.64C732.062 383.918 733.628 376.376 732.947 372.964C725.167 379.831 717.043 386.146 709.142 392.828Z"/>
	<path fill="#FEFEFE" d="M650.298 581.248L809.967 581.259C808.598 640.428 806.122 699.601 804.083 758.751L801.093 843.315C800.705 853.939 800.67 864.585 800.092 875.197C789.973 875.613 779.823 875.415 769.697 875.606Q734.834 876.19 699.988 877.436C687.367 877.512 674.751 878.132 662.132 878.361Q601.74 879.362 541.364 881.101Q540.685 813.799 541.468 746.5L541.455 581.703C577.712 581.951 614.039 581.539 650.298 581.248Z"/>
	<path d="M570.573 605.553C574.95 605.43 584.652 604.08 587.988 606.527C588.45 607.974 588.164 608.247 587.662 609.636C583.533 609.966 573.558 611.339 570.485 608.75C570.041 607.362 570.225 606.994 570.573 605.553Z"/>
	<path d="M567.142 730.496Q572.854 730.297 578.568 730.204C580.937 730.188 585.23 729.782 586.999 731.521C587.128 732.792 587.007 732.914 586.388 734.051C581.285 734.441 575.52 734.779 570.44 734.218C568.768 734.033 567.848 733.852 566.782 732.532L567.142 730.496Z"/>
	<path fill="#FEFEFE" d="M299.782 442.676C310.564 441.313 320.78 444.598 330.614 448.623C330.645 448.999 330.684 449.375 330.712 449.751C330.92 452.548 331.259 454.826 333.191 456.986C334.624 457.62 334.903 457.538 336.421 457.429C341.271 457.083 340.425 462.575 343.565 464.591C345.33 465.724 347.692 465.244 349.61 464.941C358.583 471.246 366.847 478.605 374.894 486.037C371.014 490.516 368.063 495.994 364.921 501.027C358.155 511.867 351.96 522.549 346.409 534.082C342.384 542.447 338.925 551.062 334.996 559.471C325.444 555.511 315.994 551.182 307.14 545.804C303.904 543.838 296.516 536.847 292.983 537.239L292.56 537.99C292.682 539.34 292.893 540.533 293.83 541.571C297.872 546.048 307.536 550.865 313.04 553.781C348.275 572.448 382.067 580.996 421.846 581.884C421.13 587.788 419.363 594.691 414.708 598.715C409.543 603.178 401.408 602.983 395.365 600.57C393.285 599.739 390.871 598.133 388.655 597.925C386.56 606.567 385.015 613.821 378.991 620.669C375.702 623.458 372.179 625.532 368.047 626.793C358.101 629.83 349.221 628.368 340.171 623.583C338.668 628.903 337.262 634.12 334.752 639.082C329.042 650.373 319.514 659.132 307.434 663.076C300.929 665.199 294.392 666.312 288.048 663.047C284.744 658.727 284.188 643.073 283.423 637.279C283.18 635.438 282.99 633.457 281.42 632.252C280.475 632.403 280.562 632.166 280.137 632.892C277.343 637.659 282.887 661.063 284.3 667.301C281.188 671.331 276.39 675.191 271.249 676.165C269.085 676.574 267.783 676.215 265.969 675.039C264.417 672.608 259.843 632.539 258.728 625.894C254.76 602.249 248.603 578.868 245.333 555.119C241.148 524.716 242.887 489.093 262.321 463.823C272.001 451.236 284.153 444.663 299.782 442.676Z"/>
	<path fill="#FEFEFE" d="M358.212 411.628C367.025 410.592 377.397 412.126 385.762 414.986C408.39 422.72 424.124 443.336 434.186 464.165C443.885 484.243 451.007 511.633 445.422 533.815C443.753 540.445 440.464 546.292 438.254 552.704L438.064 553.27C433.085 554.736 427.958 556.162 422.831 556.979C419.174 557.561 409.68 556.513 407.33 558.757C406.395 564.431 407.444 571.662 407.467 577.554C381.173 574.253 364.007 571.253 339.264 561.071C343.687 549.001 349.196 537.079 355.172 525.702C358.184 519.377 362.292 513.587 366.025 507.68C369.964 501.444 373.663 495.046 377.551 488.775C379.697 490.867 381.855 493.003 383.494 495.53C385.254 498.241 386.736 502.286 388.998 504.532C389.766 505.293 390 505.255 391.01 505.253C392.082 504.133 392.328 502.893 392.565 501.405C394.411 489.791 392.221 470.085 384.94 460.526C371.973 443.504 353.826 463.03 346.428 460.766C345.115 460.365 344.958 459.969 344.281 458.87C343.168 448.999 357.737 445.682 361.836 438.473C362.62 437.094 362.436 436.931 362.008 435.477C357.768 432.952 342.867 452.217 336.698 453.02C335.4 452.549 335.308 452.63 334.639 451.445C335.089 441.629 344.549 437.912 349.224 430.644C349.344 429.435 349.365 429.437 348.692 428.431C342.281 427.355 334.855 442.77 330.389 445.478L329.675 445.128C329.325 444.543 329.137 443.967 328.996 443.3C327.8 437.627 330.945 431.338 334.143 426.803Q334.664 426.052 335.222 425.329Q335.78 424.605 336.373 423.91Q336.967 423.216 337.595 422.552Q338.222 421.888 338.883 421.256Q339.543 420.624 340.234 420.027Q340.925 419.429 341.645 418.867Q342.365 418.304 343.113 417.779Q343.86 417.253 344.633 416.766Q345.406 416.279 346.203 415.831Q346.999 415.383 347.817 414.976Q348.635 414.568 349.472 414.202Q350.309 413.836 351.164 413.513Q352.018 413.19 352.888 412.91Q353.758 412.63 354.641 412.393Q355.523 412.157 356.417 411.966Q357.31 411.774 358.212 411.628Z"/>
	<path fill="#FEFEFE" d="M636.683 561.25L760.427 561.123C791.401 561.098 822.53 560.547 853.48 561.446L853.377 577.027C822.637 577.761 791.795 577.275 761.046 577.252L628.875 577.453Q520.21 578.063 411.543 577.54L411.516 561.626C486.556 560.59 561.635 561.807 636.683 561.25Z"/>
	<path fill="#FEFEFE" d="M364.311 766.228C364.697 766.228 365.294 766.408 365.68 766.488C367.443 768.792 371.218 817.662 371.839 825.142C372.199 829.474 371.956 838.732 373.709 842.503C374.833 844.92 379.476 844.582 381.776 844.781C408.019 847.055 435.058 852.373 459.668 861.936C456.702 865.334 455.137 868.571 453.587 872.763C446.195 871.627 438.886 869.777 431.521 868.453Q409.876 864.591 387.965 862.754C384.012 862.447 378.914 861.618 375.088 862.528C374.718 862.616 373.728 862.928 373.473 863.202C371.658 865.154 370.689 874.222 369.58 877.308C368.773 879.553 367.654 881.51 366.403 883.524C360.777 885.596 355.997 886.172 350.061 885.232C337.033 879.955 342.357 870.328 336.758 864.106C333.571 862.764 304.923 872.962 299.709 874.972C292.615 877.708 285.819 881.201 278.669 883.792C276.903 880.451 274.785 878.005 272.16 875.339C285.663 866.556 299.789 859.512 314.762 853.606C321.54 850.933 328.795 849.005 335.332 845.815C335.407 839.616 334.161 832.91 333.475 826.737Q331.733 810.44 329.671 794.18C328.495 785.481 326.919 776.753 326.279 767.999C338.976 767.596 351.626 766.878 364.311 766.228Z"/>
	<path fill="#FEFEFE" d="M279.637 715.303C281.277 715.025 282.792 714.669 284.402 715.277C288.514 716.831 292.011 720.498 295.806 722.74C306.661 729.153 319.508 732.478 331.819 734.629C372.711 741.773 415.617 739.264 456.933 737.738C444.261 752.248 415.649 755.691 397.477 758.853C383.261 760.954 368.848 761.693 354.514 762.529Q322.748 764.682 290.92 763.874C278.086 763.592 264.864 763.267 252.241 760.717C245.345 759.323 238.186 756.913 232.412 752.794C228.4 749.931 225.09 746.044 224.353 741.033C223.726 736.773 224.648 732.17 227.374 728.78C237.035 716.767 265.36 716.859 279.637 715.303Z"/>
	<path fill="#FEFEFE" d="M523.51 581.9L537.375 581.907C538.239 645.828 537.218 709.815 537.418 773.743L537.256 851.188C537.208 864.072 538.146 877.735 536.904 890.526L521.689 890.689L521.762 737.725L523.51 581.9Z"/>
	<path fill="#FEFEFE" d="M323.704 359.212C339.054 370.814 353.657 378.443 373.358 379.674C373.819 389.114 374.084 398.165 372.254 407.506C361.09 406.812 350.556 407.116 341.083 413.758C331.426 420.529 326.185 430.187 324.146 441.625L317.925 439.824C311.973 438.573 305.852 437.665 299.786 438.516C297.555 433.37 295.452 428.172 294.231 422.683C289.901 423.932 284.939 424.621 280.551 423.326C276.162 422.031 272.29 418.82 270.296 414.686Q269.99 414.047 269.752 413.379Q269.514 412.712 269.345 412.023Q269.177 411.335 269.081 410.633Q268.985 409.931 268.962 409.222Q268.938 408.514 268.988 407.807Q269.038 407.1 269.161 406.402Q269.284 405.704 269.478 405.023Q269.672 404.341 269.935 403.683C271.216 400.46 273.605 397.96 276.805 396.609C281.179 394.764 285.827 395.28 290.097 397.091C295.786 394.612 301.249 392.073 306.168 388.217C315.368 381.004 322.317 370.962 323.704 359.212Z"/>
	<path d="M339.787 383.165C340.048 383.194 340.827 383.266 341.047 383.356C342.145 383.801 342.373 384.616 342.673 385.661C343.841 389.727 345.104 398.694 343.032 402.377C342.866 402.343 342.696 402.321 342.532 402.275C341.606 402.012 341.076 401.581 340.652 400.705C338.704 396.685 338.333 387.319 339.787 383.165Z"/>
	<path d="M356.66 377.958C357.793 378.497 357.83 378.282 358.403 379.497C358.031 381.228 357.584 383.5 356.673 385.022C355.92 386.28 354.91 386.284 353.612 386.646C352.861 385.865 351.58 384.615 351.163 383.611C350.589 382.228 350.832 381.801 351.349 380.516C352.921 379.085 354.69 378.605 356.66 377.958Z"/>
	<path d="M327.812 384.342C328.687 384.95 328.489 384.665 328.97 385.474C329.368 386.145 329.315 386.73 329.025 387.474C328.038 390.005 324.323 391.967 322.059 393.263C321.305 392.677 320.866 392.109 320.33 391.321C320.37 390.792 320.364 390.397 320.582 389.881C321.599 387.464 325.608 385.569 327.812 384.342Z"/>
	<path d="M281.598 405.061C282.286 404.995 282.983 404.924 283.674 404.919C285.428 404.905 286.807 405.375 288.016 406.59C287.615 407.659 287.379 407.81 286.485 408.546C284.539 408.564 280.595 409.035 279.158 407.868C279.476 406.548 280.597 405.88 281.598 405.061Z"/>
	<path d="M276.544 410.198C278.37 409.975 280.492 409.528 282.317 409.717C283.389 409.827 283.493 409.891 284.222 410.715L283.669 412.37C281.902 412.377 280.2 412.645 278.429 412.602C277.256 411.819 277.162 411.49 276.544 410.198Z"/>
	<path fill="#FEFEFE" d="M733.285 528.629C738.746 529.731 744.122 531.561 749.509 532.991L788.995 543.386L824.06 552.414C829.818 553.948 835.993 555.206 841.485 557.506L497.875 557.333Q480.996 557.235 464.116 557.352C457.231 557.368 450.004 557.778 443.185 556.756C465.863 550.252 488.741 544.47 511.493 538.222C521.463 535.484 532.026 531.086 542.196 529.587C546.679 528.926 551.653 529.366 556.188 529.438C547.939 533.473 537.055 534.753 529.966 540.834C528.188 542.359 526.655 544.431 526.52 546.844C526.408 548.828 527.337 551.58 528.832 552.94C530.009 554.01 531.454 554.341 532.994 554.416C543.879 554.949 555.199 553.927 566.115 553.728Q606.785 553.11 647.434 551.675L695.096 550.601C706.706 550.406 718.562 550.64 730.096 549.228C732.655 542.666 732.641 535.57 733.285 528.629Z"/>
	<path fill="#FEFEFE" d="M463.08 581.745L519.226 581.857C519.32 592.235 519.043 602.635 518.918 613.013Q511.287 610.431 503.444 608.586Q495.601 606.742 487.619 605.652C470.801 603.226 453.987 603.715 437.082 604.469C434.296 597.938 430.187 593.429 425.446 588.283L425.564 581.813Q444.322 581.941 463.08 581.745Z"/>
	<path fill="#FEFEFE" d="M640.076 527.76C658.297 527.395 676.547 527.516 694.773 527.439C700.582 531.511 706.392 535.649 712.707 538.908C676.772 539.986 640.807 539.85 604.875 541.177C581.429 542.496 556.79 542.407 533.169 543.133C540.613 539.505 561.039 530.549 568.56 528.924C575.212 527.487 583.533 528.327 590.409 528.241L640.076 527.76Z"/>
	<path fill="#FEFEFE" d="M741.295 368.569C742.065 368.599 742.808 368.688 743.572 368.78C743.681 369.093 743.832 369.396 743.898 369.721C744.266 371.535 742.88 379.949 742.692 382.413Q738.877 428.62 734.562 474.782L729.169 527.209C728.699 531.803 729.066 536.632 728.309 541.167C728.198 541.832 727.977 542.196 727.525 542.682L726.319 542.005L721.44 539.601C721.153 525.76 724.029 508.239 725.416 494.082L734.996 397.907C735.35 394.176 736.559 371.995 737.825 370.098C738.718 368.761 739.832 368.871 741.295 368.569Z"/>
	<path fill="#FEFEFE" d="M695.191 543.25C701.677 543.047 712.901 541.598 718.837 543.603C720.381 544.124 721.885 545.076 723.295 545.885L558.875 549.747C553.101 549.976 538.193 551.305 533.614 550.37C532.363 550.115 531.99 549.694 531.334 548.661L531.642 547.943C533.008 547.213 534.254 546.997 535.798 546.899C554.499 545.721 573.616 546.049 592.364 545.639L695.191 543.25Z"/>
	<path fill="#FEFEFE" d="M367.891 458.102C368.155 458.081 368.419 458.055 368.683 458.037C373.23 457.729 376.702 458.485 380.103 461.681C387.99 469.092 388.733 485.083 388.817 495.147C387.154 492.696 385.293 490.475 383.377 488.221C374.399 479.144 364.476 471.59 354.827 463.287C358.956 461.044 363.405 459.46 367.891 458.102Z"/>
	<path fill="#FEFEFE" d="M426.476 625.145C453.912 624.845 482.034 632.072 507.096 642.784C510.941 644.427 515.012 645.731 518.642 647.809C519.337 649.435 519.017 651.264 518.899 652.987C493.429 638.862 463.588 631.256 434.686 629.372C432.082 629.203 428 629.287 426.2 627.267L426.476 625.145Z"/>
	<path d="M581.656 106.707C584.752 106.238 588.453 106.373 591.604 106.474C609.451 107.047 628.053 113.98 640.276 127.312C653.041 141.234 655.79 153.937 654.976 172.198Q657.106 171.155 659.35 170.389Q661.594 169.623 663.917 169.145C678.309 166.094 695.414 169.733 707.668 177.73Q708.555 178.316 709.413 178.945Q710.271 179.573 711.097 180.243Q711.923 180.913 712.715 181.622Q713.508 182.331 714.264 183.078Q715.021 183.825 715.741 184.608Q716.46 185.391 717.141 186.208Q717.821 187.026 718.461 187.875Q719.1 188.725 719.698 189.604Q720.296 190.484 720.849 191.392Q721.403 192.299 721.912 193.233Q722.421 194.167 722.884 195.124Q723.347 196.082 723.762 197.061Q724.177 198.04 724.545 199.038Q724.912 200.036 725.23 201.05Q725.548 202.065 725.816 203.094Q726.084 204.123 726.302 205.164C728.511 215.91 726.877 228.594 720.807 237.87C727.464 239.914 733.234 242.277 738.725 246.653C748.422 254.38 753.449 264.49 754.713 276.75C756.466 293.759 749.953 310.88 739.303 323.995C729.169 336.475 715.243 346.723 698.838 348.366C688.921 349.359 679.783 346.399 672.05 340.156C671.826 349.678 670.042 357.92 664.157 365.63C653.064 380.162 632.451 388.652 614.783 390.98C600.188 392.903 585.661 390.589 573.806 381.518C563.789 372.603 560.375 363.83 558.136 350.872C552.531 359.421 545.47 365.554 535.973 369.464C522.79 374.891 507.143 374.222 494.061 368.763C482.284 363.849 472.199 354.379 467.37 342.477C463.112 331.983 464.075 322.772 468.472 312.553C457.318 310.131 448.008 308.73 438.156 302.431C423.765 293.23 413.999 278.167 410.504 261.521Q410.305 260.559 410.131 259.593Q409.956 258.627 409.805 257.656Q409.655 256.686 409.528 255.712Q409.402 254.739 409.299 253.762Q409.197 252.785 409.119 251.806Q409.041 250.828 408.987 249.847Q408.934 248.867 408.904 247.885Q408.875 246.904 408.87 245.922Q408.865 244.94 408.884 243.958Q408.904 242.976 408.948 241.995Q408.991 241.014 409.059 240.035Q409.128 239.055 409.22 238.077Q409.312 237.1 409.429 236.125Q409.546 235.15 409.686 234.178Q409.827 233.206 409.992 232.238Q410.157 231.27 410.346 230.306Q410.535 229.343 410.748 228.384Q410.96 227.425 411.197 226.472Q411.433 225.519 411.693 224.572Q411.953 223.625 412.237 222.685Q412.52 221.745 412.827 220.812Q413.134 219.88 413.464 218.955Q413.793 218.03 414.146 217.113Q414.499 216.197 414.874 215.289Q415.249 214.382 415.647 213.484Q416.045 212.586 416.465 211.699Q416.884 210.811 417.326 209.934Q417.768 209.057 418.231 208.191Q418.695 207.326 419.18 206.472Q419.664 205.618 420.17 204.776Q420.676 203.934 421.203 203.105Q421.729 202.277 422.276 201.461C431.956 186.76 447.268 175.436 464.679 171.994C482.267 168.517 496.148 171.076 510.934 180.987C510.083 163.415 514.68 147.255 526.029 133.572C540.096 116.612 560.173 108.735 581.656 106.707ZM470.511 308.671C472.004 307.295 474.395 304.899 476.611 305.005C476.762 305.012 476.906 305.064 477.054 305.094C477.472 306.081 477.673 306.492 477.221 307.585C476.555 309.193 474.449 310.756 473.403 312.205C468.997 318.31 467.505 327.72 469 334.956C471.235 345.782 479.382 355.439 488.526 361.255C499.703 368.366 514.178 371.016 527.123 368.093C537.42 365.768 548.208 359.169 553.766 349.994C555.595 346.975 556.56 341.899 560.005 340.573C560.615 340.746 561.246 340.726 561.59 341.319C562.49 342.874 562.104 346.509 562.219 348.352C562.787 357.524 565.093 365.204 570.592 372.599C579.149 382.052 589.032 386.896 601.852 387.579C620.695 388.583 642.548 381.037 656.551 368.336C663.247 362.262 667.749 353.396 668.062 344.286C668.183 340.801 665.243 333.982 666.835 331.364C670.38 333.028 673.407 336.13 676.58 338.435C686.278 345.483 696.751 346.026 707.828 342.042C724.14 336.174 738.151 322.352 745.421 306.748C751.267 294.201 752.949 280.027 748.133 266.877C744.909 258.077 738.212 249.784 729.653 245.622C725.042 243.38 718.998 243.245 714.702 240.673C715.783 237.173 718.43 234.038 719.953 230.672Q720.411 229.653 720.811 228.609Q721.211 227.565 721.551 226.501Q721.892 225.436 722.171 224.354Q722.451 223.272 722.669 222.176Q722.888 221.08 723.044 219.973Q723.2 218.867 723.293 217.753Q723.386 216.639 723.417 215.522Q723.447 214.405 723.414 213.288Q723.381 212.17 723.286 211.057Q723.19 209.943 723.031 208.837Q722.873 207.731 722.652 206.635Q722.431 205.539 722.149 204.458Q721.867 203.377 721.524 202.313Q721.182 201.249 720.779 200.206Q720.377 199.164 719.917 198.145Q719.456 197.127 718.939 196.136C713.279 185.239 703.293 178.372 691.727 174.851C681.95 171.875 670.762 170.679 661.12 174.561C657.829 175.887 654.008 178.016 650.517 178.488C650.74 173.459 651.607 168.45 651.689 163.434C651.893 150.941 646.068 139.686 637.733 130.662C625.68 117.613 608.209 111.008 590.63 110.504C588.303 110.438 585.966 110.566 583.643 110.695C562.485 112.67 543.491 119.092 529.516 135.927C520.797 146.431 513.286 163.681 514.594 177.566C514.956 181.412 516.483 185.421 516.407 189.234L515.659 189.875C512.641 189.532 506.42 182.994 503.119 180.971C484.403 169.497 457.49 174.343 440.9 187.495Q439.462 188.621 438.082 189.817Q436.702 191.013 435.383 192.277Q434.065 193.54 432.811 194.868Q431.558 196.196 430.372 197.585Q429.186 198.974 428.072 200.421Q426.957 201.867 425.916 203.368Q424.875 204.868 423.91 206.419Q422.945 207.97 422.059 209.567Q421.173 211.164 420.368 212.803Q419.563 214.442 418.841 216.119Q418.119 217.797 417.482 219.508Q416.845 221.22 416.294 222.961Q415.743 224.702 415.28 226.469Q414.816 228.235 414.442 230.023Q414.068 231.81 413.783 233.614Q413.499 235.418 413.305 237.234C411.387 254.733 415.391 273.302 426.65 287.133C437.956 301.023 453.216 306.828 470.511 308.671Z"/>
	<path d="M460.22 409.19Q460.581 409.091 460.947 409.009Q461.312 408.928 461.681 408.865Q462.05 408.801 462.422 408.756Q462.794 408.711 463.168 408.684Q463.541 408.657 463.916 408.649Q464.29 408.64 464.664 408.65Q465.039 408.66 465.412 408.688Q465.786 408.716 466.157 408.763Q466.529 408.809 466.898 408.874Q467.267 408.939 467.632 409.022Q467.997 409.105 468.358 409.205Q468.719 409.306 469.074 409.424Q469.429 409.542 469.779 409.678Q470.128 409.813 470.47 409.966Q470.812 410.118 471.146 410.287Q471.48 410.456 471.806 410.642Q472.131 410.827 472.447 411.028Q472.763 411.229 473.069 411.446Q473.374 411.662 473.669 411.893Q473.964 412.124 474.247 412.369Q474.53 412.615 474.801 412.873Q475.071 413.132 475.329 413.404Q475.586 413.676 475.83 413.96Q476.074 414.244 476.304 414.54Q476.534 414.836 476.749 415.143Q476.964 415.449 477.163 415.766Q477.363 416.083 477.547 416.41Q477.73 416.736 477.898 417.071Q478.065 417.406 478.216 417.749Q478.367 418.091 478.501 418.441Q478.635 418.791 478.752 419.147Q478.868 419.503 478.967 419.864Q479.066 420.225 479.147 420.591Q479.228 420.956 479.291 421.326Q479.354 421.695 479.399 422.067Q479.444 422.439 479.47 422.812Q479.497 423.186 479.505 423.56Q479.513 423.935 479.503 424.309Q479.493 424.683 479.464 425.057Q479.435 425.43 479.388 425.802Q479.341 426.173 479.276 426.542Q479.211 426.911 479.128 427.276Q479.045 427.641 478.944 428.002Q478.843 428.363 478.725 428.718Q478.606 429.073 478.47 429.422Q478.334 429.771 478.181 430.113Q478.029 430.455 477.859 430.789Q477.69 431.123 477.504 431.448Q477.319 431.774 477.117 432.089Q476.916 432.405 476.699 432.711Q476.483 433.016 476.251 433.311Q476.02 433.605 475.774 433.888Q475.529 434.171 475.27 434.441Q475.01 434.712 474.738 434.969Q474.466 435.226 474.182 435.47Q473.897 435.714 473.601 435.943Q473.305 436.173 472.998 436.387Q472.691 436.602 472.374 436.801Q472.057 437 471.731 437.184Q471.404 437.367 471.069 437.534Q470.734 437.702 470.391 437.852Q470.048 438.003 469.698 438.136Q469.348 438.27 468.992 438.386Q468.636 438.502 468.275 438.601Q467.914 438.699 467.549 438.78Q467.184 438.861 466.815 438.923Q466.446 438.986 466.075 439.031Q465.703 439.075 465.33 439.101Q464.957 439.127 464.583 439.135Q464.209 439.143 463.835 439.133Q463.461 439.122 463.088 439.094Q462.715 439.065 462.344 439.018Q461.973 438.971 461.605 438.905Q461.236 438.84 460.872 438.757Q460.507 438.674 460.147 438.573Q459.786 438.472 459.432 438.354Q459.077 438.235 458.728 438.099Q458.38 437.964 458.038 437.811Q457.697 437.658 457.363 437.489Q457.03 437.32 456.705 437.134Q456.38 436.949 456.064 436.748Q455.749 436.547 455.444 436.33Q455.139 436.114 454.844 435.883Q454.55 435.652 454.268 435.407Q453.985 435.162 453.715 434.903Q453.445 434.644 453.188 434.372Q452.931 434.101 452.687 433.817Q452.444 433.533 452.214 433.237Q451.985 432.942 451.771 432.635Q451.556 432.329 451.357 432.012Q451.158 431.695 450.974 431.37Q450.791 431.044 450.623 430.709Q450.456 430.374 450.306 430.032Q450.155 429.69 450.021 429.34Q449.888 428.991 449.771 428.635Q449.655 428.28 449.556 427.919Q449.457 427.558 449.376 427.193Q449.295 426.828 449.232 426.459Q449.169 426.09 449.124 425.719Q449.08 425.348 449.053 424.975Q449.026 424.601 449.018 424.228Q449.01 423.854 449.02 423.48Q449.03 423.106 449.059 422.733Q449.087 422.36 449.134 421.989Q449.18 421.617 449.245 421.249Q449.31 420.881 449.393 420.516Q449.476 420.151 449.576 419.791Q449.677 419.431 449.795 419.076Q449.913 418.721 450.049 418.372Q450.184 418.023 450.337 417.682Q450.489 417.34 450.658 417.006Q450.827 416.673 451.012 416.347Q451.197 416.022 451.398 415.707Q451.599 415.391 451.815 415.086Q452.031 414.78 452.261 414.486Q452.492 414.192 452.737 413.909Q452.982 413.626 453.24 413.356Q453.499 413.085 453.77 412.828Q454.042 412.571 454.326 412.327Q454.609 412.083 454.905 411.854Q455.2 411.624 455.506 411.409Q455.812 411.194 456.129 410.995Q456.445 410.795 456.771 410.612Q457.097 410.428 457.431 410.26Q457.766 410.093 458.108 409.942Q458.45 409.791 458.799 409.657Q459.149 409.523 459.504 409.406Q459.859 409.289 460.22 409.19ZM465.206 434.882Q465.473 434.858 465.738 434.82Q466.004 434.783 466.267 434.733Q466.53 434.683 466.791 434.62Q467.051 434.558 467.309 434.482Q467.566 434.407 467.819 434.32Q468.072 434.232 468.321 434.132Q468.57 434.033 468.813 433.921Q469.057 433.809 469.295 433.686Q469.533 433.563 469.765 433.428Q469.997 433.294 470.221 433.148Q470.446 433.002 470.664 432.846Q470.882 432.69 471.092 432.523Q471.301 432.356 471.503 432.18Q471.704 432.003 471.897 431.817Q472.09 431.631 472.274 431.435Q472.457 431.24 472.631 431.036Q472.805 430.832 472.969 430.62Q473.133 430.408 473.286 430.188Q473.439 429.969 473.582 429.742Q473.725 429.515 473.856 429.281Q473.987 429.048 474.108 428.808Q474.228 428.568 474.336 428.323Q474.444 428.078 474.54 427.828Q474.637 427.578 474.721 427.324Q474.805 427.069 474.877 426.811Q474.948 426.553 475.008 426.291Q475.067 426.03 475.113 425.766Q475.16 425.502 475.193 425.236Q475.227 424.97 475.248 424.703Q475.269 424.436 475.276 424.168Q475.284 423.9 475.279 423.632Q475.274 423.364 475.256 423.097Q475.238 422.83 475.207 422.563Q475.176 422.297 475.132 422.033Q475.088 421.768 475.032 421.507Q474.975 421.245 474.906 420.986Q474.837 420.727 474.755 420.471Q474.674 420.216 474.58 419.965Q474.486 419.714 474.38 419.468Q474.275 419.222 474.157 418.981Q474.039 418.74 473.91 418.505Q473.781 418.271 473.641 418.042Q473.501 417.814 473.349 417.593Q473.198 417.371 473.037 417.158Q472.875 416.944 472.703 416.738Q472.531 416.533 472.35 416.336Q472.168 416.138 471.977 415.95Q471.786 415.762 471.587 415.584Q471.387 415.405 471.179 415.236Q470.971 415.067 470.755 414.909Q470.539 414.75 470.315 414.602Q470.092 414.455 469.861 414.318Q469.631 414.181 469.394 414.055Q469.157 413.929 468.915 413.815Q468.672 413.701 468.425 413.599Q468.177 413.497 467.925 413.407Q467.672 413.317 467.416 413.239Q467.159 413.161 466.9 413.096Q466.64 413.03 466.377 412.978Q466.114 412.925 465.849 412.885Q465.584 412.845 465.318 412.818Q465.051 412.791 464.783 412.777Q464.516 412.763 464.248 412.761Q463.98 412.76 463.712 412.772Q463.344 412.788 462.978 412.829Q462.612 412.869 462.249 412.934Q461.887 412.999 461.529 413.087Q461.172 413.176 460.821 413.288Q460.47 413.4 460.128 413.535Q459.785 413.671 459.452 413.828Q459.12 413.986 458.798 414.165Q458.476 414.345 458.167 414.545Q457.858 414.746 457.563 414.966Q457.268 415.187 456.988 415.426Q456.709 415.666 456.445 415.923Q456.182 416.181 455.937 416.455Q455.691 416.73 455.464 417.02Q455.238 417.31 455.031 417.615Q454.824 417.919 454.637 418.237Q454.451 418.555 454.286 418.884Q454.121 419.213 453.979 419.553Q453.836 419.893 453.716 420.241Q453.596 420.589 453.5 420.945Q453.404 421.3 453.331 421.661Q453.259 422.022 453.21 422.387Q453.162 422.752 453.138 423.12Q453.113 423.487 453.114 423.856Q453.114 424.224 453.139 424.591Q453.164 424.959 453.213 425.324Q453.262 425.689 453.335 426.05Q453.409 426.411 453.506 426.766Q453.603 427.121 453.723 427.469Q453.844 427.818 453.987 428.157Q454.13 428.496 454.296 428.825Q454.461 429.154 454.648 429.471Q454.835 429.789 455.043 430.093Q455.251 430.397 455.478 430.687Q455.705 430.977 455.952 431.251Q456.198 431.525 456.461 431.782Q456.725 432.039 457.005 432.278Q457.286 432.517 457.581 432.737Q457.877 432.957 458.186 433.156Q458.495 433.356 458.818 433.535Q459.14 433.714 459.473 433.871Q459.806 434.028 460.149 434.162Q460.492 434.297 460.843 434.408Q461.194 434.52 461.551 434.607Q461.909 434.695 462.272 434.759Q462.634 434.823 463.001 434.863Q463.367 434.903 463.735 434.918Q464.103 434.934 464.471 434.925Q464.839 434.915 465.206 434.882Z"/>
	<path d="M497.561 386.605Q497.812 386.582 498.064 386.572Q498.315 386.562 498.567 386.564Q498.819 386.566 499.07 386.58Q499.322 386.594 499.572 386.62Q499.823 386.646 500.072 386.685Q500.321 386.723 500.568 386.774Q500.814 386.824 501.058 386.886Q501.302 386.949 501.543 387.023Q501.784 387.097 502.021 387.183Q502.257 387.268 502.49 387.365Q502.722 387.463 502.95 387.571Q503.177 387.679 503.399 387.798Q503.621 387.917 503.837 388.047Q504.053 388.177 504.262 388.317Q504.471 388.457 504.673 388.607Q504.876 388.757 505.07 388.917Q505.265 389.077 505.452 389.246Q505.639 389.415 505.817 389.593Q505.995 389.771 506.165 389.957Q506.334 390.143 506.495 390.337Q506.655 390.532 506.806 390.734Q506.956 390.935 507.097 391.144Q507.238 391.353 507.368 391.569Q507.498 391.784 507.618 392.006Q507.738 392.227 507.847 392.454Q507.956 392.682 508.054 392.914Q508.151 393.146 508.238 393.382Q508.324 393.619 508.399 393.859Q508.474 394.1 508.537 394.344Q508.6 394.588 508.651 394.834Q508.702 395.081 508.741 395.33Q508.78 395.579 508.807 395.829Q508.834 396.079 508.849 396.331Q508.864 396.582 508.866 396.834Q508.869 397.086 508.859 397.338Q508.85 397.589 508.828 397.84Q508.806 398.091 508.772 398.341Q508.738 398.59 508.692 398.838Q508.646 399.086 508.588 399.331Q508.53 399.576 508.46 399.818Q508.39 400.06 508.309 400.298Q508.227 400.536 508.134 400.771Q508.041 401.005 507.937 401.234Q507.833 401.463 507.718 401.687Q507.602 401.911 507.477 402.129Q507.351 402.347 507.214 402.559Q507.078 402.771 506.931 402.976Q506.785 403.181 506.629 403.378Q506.472 403.576 506.307 403.766Q506.141 403.955 505.966 404.137Q505.792 404.318 505.609 404.491Q505.425 404.664 505.234 404.828Q505.042 404.991 504.843 405.146Q504.644 405.3 504.438 405.444Q504.231 405.588 504.018 405.723Q503.805 405.857 503.586 405.981Q503.366 406.104 503.141 406.217Q502.916 406.33 502.686 406.432Q502.455 406.534 502.22 406.624Q501.985 406.715 501.746 406.794Q501.507 406.873 501.264 406.94Q501.021 407.008 500.776 407.063Q500.53 407.119 500.282 407.162Q500.034 407.206 499.784 407.237Q499.443 407.28 499.1 407.3Q498.757 407.32 498.414 407.318Q498.07 407.315 497.727 407.29Q497.385 407.265 497.045 407.217Q496.704 407.169 496.368 407.099Q496.032 407.029 495.701 406.937Q495.37 406.844 495.046 406.73Q494.722 406.616 494.406 406.481Q494.09 406.346 493.784 406.19Q493.478 406.034 493.182 405.859Q492.887 405.683 492.604 405.488Q492.321 405.293 492.052 405.08Q491.782 404.867 491.527 404.637Q491.273 404.406 491.034 404.159Q490.795 403.912 490.572 403.65Q490.35 403.388 490.146 403.112Q489.942 402.836 489.756 402.547Q489.571 402.258 489.404 401.957Q489.238 401.656 489.093 401.345Q488.947 401.034 488.822 400.714Q488.697 400.394 488.594 400.066Q488.49 399.738 488.409 399.405Q488.327 399.071 488.268 398.733Q488.208 398.394 488.172 398.053Q488.135 397.711 488.121 397.368Q488.106 397.025 488.115 396.681Q488.124 396.338 488.155 395.996Q488.186 395.653 488.24 395.314Q488.294 394.975 488.37 394.64Q488.446 394.305 488.545 393.976Q488.643 393.646 488.762 393.324Q488.882 393.002 489.023 392.689Q489.164 392.376 489.325 392.072Q489.486 391.769 489.667 391.477Q489.848 391.185 490.048 390.905Q490.248 390.626 490.466 390.36Q490.683 390.094 490.918 389.844Q491.153 389.593 491.404 389.358Q491.655 389.124 491.921 388.906Q492.187 388.689 492.467 388.49Q492.747 388.29 493.039 388.11Q493.332 387.929 493.635 387.769Q493.939 387.608 494.253 387.468Q494.566 387.327 494.889 387.208Q495.211 387.089 495.54 386.991Q495.87 386.894 496.205 386.818Q496.54 386.742 496.879 386.689Q497.219 386.636 497.561 386.605ZM499.791 403.114Q499.934 403.086 500.075 403.051Q500.216 403.016 500.356 402.974Q500.495 402.932 500.633 402.884Q500.77 402.836 500.905 402.781Q501.04 402.727 501.173 402.666Q501.305 402.605 501.434 402.538Q501.563 402.471 501.689 402.398Q501.815 402.326 501.938 402.247Q502.06 402.168 502.179 402.084Q502.298 401.999 502.412 401.909Q502.527 401.82 502.637 401.725Q502.747 401.629 502.853 401.529Q502.959 401.429 503.059 401.324Q503.16 401.219 503.256 401.109Q503.352 401 503.442 400.886Q503.533 400.772 503.618 400.654Q503.703 400.536 503.783 400.414Q503.862 400.292 503.936 400.166Q504.01 400.041 504.077 399.912Q504.145 399.783 504.207 399.651Q504.268 399.519 504.324 399.384Q504.379 399.25 504.428 399.113Q504.477 398.976 504.52 398.836Q504.562 398.697 504.598 398.556Q504.634 398.415 504.663 398.272Q504.693 398.13 504.715 397.986Q504.738 397.842 504.754 397.697Q504.77 397.553 504.779 397.407Q504.788 397.262 504.79 397.116Q504.792 396.971 504.788 396.825Q504.783 396.68 504.772 396.535Q504.76 396.389 504.742 396.245Q504.724 396.101 504.699 395.957Q504.674 395.814 504.642 395.671Q504.611 395.529 504.572 395.389Q504.534 395.248 504.489 395.11Q504.445 394.971 504.393 394.835Q504.342 394.699 504.284 394.565Q504.227 394.431 504.163 394.3Q504.099 394.17 504.03 394.042Q503.96 393.914 503.884 393.79Q503.808 393.665 503.727 393.545Q503.645 393.424 503.558 393.307Q503.471 393.191 503.379 393.078Q503.286 392.966 503.189 392.857Q503.091 392.749 502.989 392.646Q502.886 392.543 502.779 392.444Q502.672 392.346 502.56 392.253Q502.448 392.159 502.332 392.071Q502.216 391.983 502.096 391.901Q501.976 391.818 501.852 391.742Q501.729 391.665 501.601 391.594Q501.474 391.523 501.344 391.458Q501.213 391.394 501.08 391.335Q500.947 391.276 500.811 391.224Q500.675 391.172 500.537 391.126Q500.399 391.08 500.259 391.04Q500.118 391.001 499.977 390.968Q499.835 390.935 499.691 390.909Q499.548 390.883 499.404 390.864Q499.26 390.845 499.115 390.832Q498.969 390.82 498.824 390.814Q498.679 390.808 498.533 390.809Q498.387 390.81 498.242 390.818Q498.03 390.83 497.819 390.856Q497.608 390.882 497.399 390.922Q497.19 390.962 496.985 391.017Q496.78 391.071 496.578 391.14Q496.377 391.208 496.181 391.29Q495.985 391.373 495.795 391.468Q495.605 391.563 495.422 391.671Q495.239 391.779 495.064 391.899Q494.888 392.02 494.722 392.152Q494.555 392.284 494.398 392.427Q494.241 392.57 494.094 392.723Q493.947 392.877 493.81 393.04Q493.674 393.203 493.549 393.375Q493.425 393.548 493.312 393.728Q493.199 393.908 493.099 394.096Q492.999 394.283 492.912 394.477Q492.825 394.671 492.751 394.87Q492.678 395.07 492.618 395.274Q492.558 395.478 492.512 395.685Q492.467 395.893 492.435 396.103Q492.404 396.314 492.387 396.525Q492.37 396.737 492.367 396.95Q492.365 397.163 492.377 397.375Q492.389 397.587 492.416 397.798Q492.442 398.009 492.483 398.217Q492.524 398.426 492.579 398.631Q492.634 398.837 492.703 399.038Q492.772 399.239 492.855 399.435Q492.937 399.631 493.033 399.82Q493.129 400.01 493.237 400.193Q493.346 400.376 493.467 400.551Q493.588 400.726 493.72 400.892Q493.852 401.058 493.996 401.215Q494.139 401.372 494.293 401.518Q494.447 401.665 494.611 401.801Q494.774 401.937 494.947 402.061Q495.119 402.185 495.3 402.297Q495.48 402.41 495.668 402.509Q495.856 402.609 496.05 402.695Q496.244 402.782 496.444 402.855Q496.643 402.928 496.847 402.987Q497.052 403.046 497.259 403.092Q497.467 403.137 497.677 403.168Q497.888 403.198 498.1 403.215Q498.311 403.231 498.524 403.233Q498.737 403.235 498.949 403.222Q499.161 403.21 499.372 403.183Q499.582 403.155 499.791 403.114Z"/>
	<path d="M262.144 190.757Q262.335 190.734 262.526 190.72Q262.718 190.705 262.91 190.7Q263.102 190.696 263.294 190.7Q263.486 190.704 263.678 190.717Q263.87 190.731 264.06 190.753Q264.251 190.775 264.441 190.807Q264.63 190.839 264.818 190.879Q265.006 190.92 265.192 190.969Q265.377 191.019 265.56 191.077Q265.743 191.135 265.924 191.202Q266.104 191.269 266.28 191.344Q266.457 191.42 266.63 191.504Q266.803 191.587 266.972 191.679Q267.14 191.771 267.305 191.871Q267.469 191.971 267.628 192.079Q267.787 192.186 267.941 192.301Q268.095 192.416 268.243 192.539Q268.391 192.661 268.533 192.79Q268.676 192.919 268.811 193.055Q268.947 193.191 269.077 193.333Q269.206 193.475 269.328 193.623Q269.451 193.772 269.566 193.925Q269.681 194.079 269.788 194.238Q269.896 194.398 269.996 194.562Q270.096 194.726 270.188 194.895Q270.28 195.063 270.364 195.236Q270.448 195.409 270.523 195.586Q270.599 195.762 270.665 195.942Q270.732 196.122 270.791 196.306Q270.849 196.489 270.899 196.674Q270.948 196.86 270.989 197.048Q271.029 197.236 271.061 197.425Q271.093 197.615 271.115 197.805Q271.138 197.996 271.151 198.188Q271.165 198.379 271.169 198.572Q271.173 198.764 271.168 198.956Q271.163 199.148 271.149 199.339Q271.135 199.531 271.112 199.722Q271.089 199.912 271.056 200.102Q271.024 200.291 270.983 200.479Q270.942 200.667 270.891 200.852Q270.841 201.038 270.782 201.22Q270.723 201.403 270.656 201.583Q270.588 201.763 270.512 201.939Q270.436 202.116 270.351 202.288Q270.267 202.461 270.174 202.629Q270.082 202.798 269.981 202.961Q269.881 203.125 269.773 203.284Q269.664 203.443 269.549 203.596Q269.433 203.75 269.31 203.897Q269.188 204.045 269.058 204.187Q268.928 204.328 268.792 204.464Q268.655 204.599 268.513 204.728Q268.37 204.857 268.221 204.978Q268.073 205.1 267.919 205.215Q267.764 205.329 267.605 205.436Q267.445 205.543 267.281 205.643Q267.116 205.742 266.947 205.833Q266.778 205.925 266.605 206.008Q266.432 206.091 266.255 206.166Q266.078 206.241 265.897 206.307Q265.717 206.373 265.534 206.431Q265.351 206.488 265.165 206.537Q264.979 206.586 264.791 206.626Q264.526 206.682 264.258 206.721Q263.989 206.759 263.719 206.779Q263.449 206.799 263.178 206.801Q262.907 206.803 262.637 206.787Q262.366 206.771 262.097 206.736Q261.829 206.702 261.563 206.65Q261.297 206.597 261.035 206.527Q260.774 206.457 260.517 206.369Q260.261 206.282 260.011 206.177Q259.761 206.072 259.518 205.951Q259.276 205.83 259.042 205.693Q258.809 205.556 258.585 205.403Q258.361 205.251 258.148 205.083Q257.935 204.916 257.733 204.735Q257.532 204.553 257.343 204.359Q257.154 204.165 256.979 203.958Q256.804 203.751 256.643 203.533Q256.482 203.316 256.336 203.087Q256.19 202.859 256.059 202.622Q255.929 202.384 255.815 202.138Q255.701 201.892 255.604 201.64Q255.506 201.387 255.426 201.128Q255.346 200.869 255.284 200.605Q255.221 200.342 255.177 200.074Q255.132 199.807 255.106 199.538Q255.079 199.268 255.071 198.997Q255.062 198.726 255.072 198.455Q255.082 198.185 255.11 197.915Q255.138 197.646 255.184 197.379Q255.23 197.112 255.294 196.848Q255.358 196.585 255.44 196.327Q255.521 196.068 255.62 195.816Q255.719 195.564 255.834 195.318Q255.95 195.073 256.081 194.836Q256.213 194.6 256.36 194.372Q256.508 194.145 256.67 193.928Q256.832 193.711 257.009 193.505Q257.185 193.3 257.375 193.106Q257.565 192.913 257.768 192.733Q257.97 192.553 258.184 192.387Q258.398 192.221 258.623 192.069Q258.848 191.918 259.083 191.782Q259.317 191.646 259.56 191.527Q259.803 191.407 260.054 191.304Q260.304 191.201 260.561 191.115Q260.818 191.029 261.08 190.96Q261.343 190.891 261.609 190.841Q261.875 190.79 262.144 190.757Z"/>
</svg>
